# Blender v2.79 (sub 0) OBJ File: ''
# www.blender.org
mtllib textured.mtl
o Cube
v 1.000000 -0.399462 -0.399461
v 0.399462 -1.000000 -0.399462
v 0.399462 -0.399462 -1.000000
v 1.000000 -0.399462 0.399462
v 0.399461 -0.399462 1.000000
v 0.399462 -1.000000 0.399461
v -0.399462 -0.399462 1.000000
v -1.000000 -0.399462 0.399461
v -0.399461 -1.000000 0.399461
v -0.399461 -0.399462 -1.000000
v -0.399461 -1.000000 -0.399462
v -1.000000 -0.399462 -0.399462
v 0.399462 0.399462 -1.000000
v 0.399462 1.000000 -0.399461
v 1.000000 0.399462 -0.399461
v 0.399461 0.399462 1.000000
v 1.000000 0.399462 0.399462
v 0.399461 1.000000 0.399462
v -1.000000 0.399462 0.399461
v -0.399462 0.399462 1.000000
v -0.399462 1.000000 0.399461
v -1.000000 0.399462 -0.399462
v -0.399462 1.000000 -0.399461
v -0.399461 0.399462 -1.000000
vt 0.776029 0.530854
vt 0.775525 0.230024
vt 0.908719 0.229520
vt 0.909223 0.530350
vt 0.774989 -0.089771
vt 0.774485 -0.390601
vt 0.907679 -0.391105
vt 0.908183 -0.090275
vt 0.217311 0.757402
vt 0.217311 0.557229
vt 0.417483 0.557229
vt 0.417483 0.757402
vt 0.776565 0.850649
vt 0.909759 0.850145
vt 0.910263 1.150975
vt 0.777069 1.151479
vt 0.778109 1.772104
vt 0.777605 1.471274
vt 0.910799 1.470770
vt 0.911303 1.771600
vt 0.419998 0.555401
vt 0.526394 0.371118
vt 0.632790 0.555401
vt 0.219825 0.555401
vt 0.007033 0.555401
vt 0.113429 0.371118
vt 0.004519 0.757402
vt 0.110914 0.941685
vt 0.630275 0.757402
vt 0.523879 0.941685
vt 0.632790 0.755574
vt 0.526394 0.939857
vt 0.419998 0.755574
vt 0.007033 0.755574
vt 0.219825 0.755574
vt 0.113429 0.939857
vt 0.004519 0.557229
vt 0.110915 0.372946
vt 0.523879 0.372946
vt 0.630275 0.557229
vt 0.219825 0.342609
vt 0.419998 0.342609
vt 0.773949 -0.710397
vt 0.907143 -0.710901
vt 0.417483 0.970194
vt 0.217311 0.970194
vt 0.419998 0.968366
vt 0.219825 0.968366
vt 0.217311 0.344437
vt 0.417483 0.344437
vn 0.0000 0.0000 -1.0000
vn 0.0000 -1.0000 -0.0000
vn -1.0000 0.0000 -0.0000
vn 0.0000 1.0000 0.0000
vn -0.0000 -0.0000 1.0000
vn 0.5774 -0.5774 -0.5774
vn 0.5774 -0.5774 0.5774
vn -0.5774 -0.5774 0.5774
vn -0.5774 -0.5774 -0.5774
vn 0.5774 0.5774 -0.5774
vn 0.5773 0.5774 0.5774
vn -0.5774 0.5774 0.5774
vn -0.5774 0.5774 -0.5774
vn 0.7071 -0.7071 0.0000
vn 0.0000 -0.7071 -0.7071
vn 0.7071 0.0000 -0.7071
vn -0.0000 -0.7071 0.7071
vn 0.7071 0.0000 0.7071
vn -0.7071 -0.7071 -0.0000
vn -0.7071 -0.0000 0.7071
vn -0.7071 0.0000 -0.7071
vn 0.7071 0.7071 0.0000
vn 0.0000 0.7071 -0.7071
vn -0.0000 0.7071 0.7071
vn -0.7071 0.7071 -0.0000
vn 1.0000 0.0000 0.0000
usemtl Material
s off
f 13/1/1 3/2/1 10/3/1 24/4/1
f 2/5/2 6/6/2 9/7/2 11/8/2
f 8/9/3 19/10/3 22/11/3 12/12/3
f 14/13/4 23/14/4 21/15/4 18/16/4
f 5/17/5 16/18/5 20/19/5 7/20/5
f 1/21/6 2/22/6 3/23/6
f 4/24/7 5/25/7 6/26/7
f 7/27/8 8/9/8 9/28/8
f 10/29/9 11/30/9 12/12/9
f 13/31/10 14/32/10 15/33/10
f 16/34/11 17/35/11 18/36/11
f 19/10/12 20/37/12 21/38/12
f 22/11/13 23/39/13 24/40/13
f 1/21/14 4/24/14 6/41/14 2/42/14
f 2/5/15 11/8/15 10/3/15 3/2/15
f 3/23/16 13/31/16 15/33/16 1/21/16
f 5/43/17 7/44/17 9/7/17 6/6/17
f 4/24/18 17/35/18 16/34/18 5/25/18
f 8/9/19 12/12/19 11/45/19 9/46/19
f 7/27/20 20/37/20 19/10/20 8/9/20
f 12/12/21 22/11/21 24/40/21 10/29/21
f 14/47/22 18/48/22 17/35/22 15/33/22
f 13/1/23 24/4/23 23/14/23 14/13/23
f 18/16/24 21/15/24 20/19/24 16/18/24
f 21/49/25 23/50/25 22/11/25 19/10/25
f 1/21/26 15/33/26 17/35/26 4/24/26
