# Blender v2.79 (sub 0) OBJ File: ''
# www.blender.org
mtllib cube.mtl
o Cube_Cube.001
v -1.000000 -1.000000 1.000000
v -1.000000 1.000000 1.000000
v -1.000000 -1.000000 -1.000000
v -1.000000 1.000000 -1.000000
v 1.000000 -1.000000 1.000000
v 1.000000 1.000000 1.000000
v 1.000000 -1.000000 -1.000000
v 1.000000 1.000000 -1.000000
vt 0.500000 0.250043
vt 0.749957 0.250043
vt 0.749957 0.000087
vt 0.500000 0.000087
vt 0.749957 0.500000
vt 0.999913 0.500000
vt 0.999913 0.250043
vt 0.500000 0.500000
vt 0.500000 0.749957
vt 0.749957 0.749957
vt 0.250043 0.250043
vt 0.250043 0.500000
vt 0.000087 0.500000
vt 0.000087 0.250043
vn 1.0000 0.0000 0.0000
vn 0.0000 0.0000 1.0000
vn -1.0000 0.0000 0.0000
vn 0.0000 0.0000 -1.0000
vn 0.0000 1.0000 0.0000
vn 0.0000 -1.0000 0.0000
usemtl None
s off
f 1/1/1 3/2/1 4/3/1 2/4/1
f 3/2/2 7/5/2 8/6/2 4/7/2
f 7/5/3 5/8/3 6/9/3 8/10/3
f 5/8/4 1/1/4 2/11/4 6/12/4
f 3/2/5 1/1/5 5/8/5 7/5/5
f 8/13/6 6/12/6 2/11/6 4/14/6
