# Blender v2.79 (sub 0) OBJ File: ''
# www.blender.org
mtllib cube.mtl
o Cube_Cube.001
v -1.000000 -1.000000 1.000000
v -1.000000 -1.000000 -1.000000
v -1.000000 1.000000 -1.000000
v -1.000000 1.000000 1.000000
v 1.000000 -1.000000 -1.000000
v 1.000000 1.000000 -1.000000
v 1.000000 -1.000000 1.000000
v 1.000000 1.000000 1.000000
vt 1.748501 1.748501
vt -0.748502 1.748502
vt -0.748502 -0.748502
vt 1.748502 -0.748502
vt -0.748502 -0.748502
vt 1.748502 -0.748502
vt 1.748502 1.748502
vt -0.748502 1.748502
vt 1.748501 1.748502
vt -0.748502 1.748501
vt -0.748502 -0.748501
vt 1.748502 -0.748502
vt -0.748502 -0.748502
vt 1.748502 -0.748502
vt 1.748502 1.748502
vt -0.748502 1.748502
vt -0.748502 -0.748502
vt 1.748502 -0.748501
vt 1.748502 1.748502
vt -0.748502 1.748502
vn 1.0000 0.0000 0.0000
vn 0.0000 -0.0000 1.0000
vn -1.0000 0.0000 0.0000
vn 0.0000 0.0000 -1.0000
vn 0.0000 1.0000 0.0000
vn 0.0000 -1.0000 -0.0000
g Cube_Cube.001_Cube_Cube.001_None
usemtl None
s 1
f 1/1/1 2/2/1 3/3/1 4/4/1
f 2/5/2 5/6/2 6/7/2 3/8/2
f 5/9/3 7/10/3 8/11/3 6/12/3
f 7/13/4 1/14/4 4/15/4 8/16/4
f 2/2/5 1/17/5 7/18/5 5/9/5
f 6/12/6 8/19/6 4/20/6 3/3/6
