# Blender v2.79 (sub 0) OBJ File: ''
# www.blender.org
mtllib thing.mtl
o Cube
v 1.000000 -1.000000 -1.000000
v 1.000000 -1.000000 1.000000
v -1.000000 -1.000000 1.000000
v -1.000000 -1.000000 -1.000000
v 1.000000 1.000000 -0.999999
v 0.999999 1.000000 1.000001
v -1.000000 1.000000 1.000000
v -1.000000 1.000000 -1.000000
v 0.229985 -1.000000 -0.076661
v 0.229985 -1.000000 0.076662
v -0.229985 -1.000000 0.076661
v -0.229985 -1.000000 -0.076662
v 0.229985 1.000000 -0.076661
v 0.229984 1.000000 0.076662
v -0.229985 1.000000 0.076661
v -0.229985 1.000000 -0.076661
vt 0.179444 0.795003
vt 0.333333 0.666667
vt 0.333333 1.000000
vt 0.179444 0.871664
vt 0.820556 0.128336
vt 0.820556 0.204997
vt 0.666667 0.333333
vt 0.666667 0.000000
vt 0.000000 0.512777
vt 0.333333 0.512777
vt 0.333333 0.666667
vt 0.000000 0.666667
vt 0.333333 0.333333
vt 0.333333 0.000000
vt 0.666667 0.000000
vt 0.666667 0.333333
vt 0.333333 0.153890
vt 0.000000 0.153890
vt 0.000000 0.000000
vt 0.333333 0.000000
vt 0.333333 0.333333
vt 0.666667 0.333333
vt 0.666667 0.666667
vt 0.333333 0.666667
vt 0.333333 0.333333
vt 0.000000 0.333333
vt 0.000000 0.179444
vt 0.333333 0.179444
vt 0.000000 0.333333
vt 0.333333 0.487223
vt 0.000000 0.487223
vt 1.000000 0.000000
vt 1.000000 0.333333
vt 0.846110 0.204997
vt 0.846110 0.128336
vt 0.000000 0.666667
vt 0.153890 0.795003
vt 0.153890 0.871664
vt 0.000000 1.000000
vn 0.0000 -1.0000 0.0000
vn 0.0000 1.0000 0.0000
vn 0.7680 0.0000 -0.6405
vn -0.0000 -0.0000 1.0000
vn -0.7680 -0.0000 0.6405
vn 0.0000 0.0000 -1.0000
vn -0.7680 -0.0000 -0.6405
vn -1.0000 -0.0000 -0.0000
vn 0.7680 -0.0000 0.6405
vn 1.0000 0.0000 0.0000
usemtl Material
s off
f 10/1/1 2/2/1 3/3/1 11/4/1
f 14/5/2 15/6/2 7/7/2 6/8/2
f 10/9/3 14/10/3 6/11/3 2/12/3
f 2/13/4 6/14/4 7/15/4 3/16/4
f 12/17/5 16/18/5 8/19/5 4/20/5
f 5/21/6 1/22/6 4/23/6 8/24/6
f 3/25/7 7/26/7 15/27/7 11/28/7
f 11/28/8 15/27/8 16/18/8 12/17/8
f 1/29/9 5/21/9 13/30/9 9/31/9
f 9/31/10 13/30/10 14/10/10 10/9/10
f 5/32/2 8/33/2 16/34/2 13/35/2
f 13/35/2 16/34/2 15/6/2 14/5/2
f 1/36/1 9/37/1 12/38/1 4/39/1
f 9/37/1 10/1/1 11/4/1 12/38/1
