mtllib pista.mtl
v -0.126840 0.000000 0.597898
v -0.098156 0.000000 0.502100
v -0.022824 0.000000 0.629030
v 0.003811 0.000000 0.532643
v 0.074277 0.000000 0.655838
v 0.097887 0.000000 0.558665
v 0.164786 0.000000 0.677779
v 0.184095 0.000000 0.579661
v 0.249078 0.000000 0.694273
v 0.262405 0.000000 0.595165
v 0.327583 0.000000 0.704659
v 0.332733 0.000000 0.604792
v 0.400757 0.000000 0.708133
v 0.394966 0.000000 0.608300
v 0.468961 0.000000 0.703672
v 0.449090 0.000000 0.605666
v 0.532188 0.000000 0.690064
v 0.495455 0.000000 0.597055
v 0.589760 0.000000 0.666230
v 0.535086 0.000000 0.582499
v 0.640455 0.000000 0.631818
v 0.569548 0.000000 0.561305
v 0.683336 0.000000 0.587358
v 0.600125 0.000000 0.531897
v 0.718377 0.000000 0.533558
v 0.627186 0.000000 0.492520
v 0.746224 0.000000 0.470623
v 0.650431 0.000000 0.441923
v 0.767651 0.000000 0.398201
v 0.669432 0.000000 0.379411
v 0.783289 0.000000 0.315647
v 0.683902 0.000000 0.304585
v 0.793597 0.000000 0.222232
v 0.693727 0.000000 0.217125
v 0.798912 0.000000 0.117235
v 0.698914 0.000000 0.116707
v 0.799500 0.000000 -0.000028
v 0.699545 0.000000 0.002969
v 0.795579 0.000000 -0.130201
v 0.695742 0.000000 -0.124491
v 0.786279 0.000000 -0.280996
v 0.688726 0.000000 -0.259008
v 0.761938 0.000000 -0.383443
v 0.671589 0.000000 -0.340584
v 0.717931 0.000000 -0.473629
v 0.638552 0.000000 -0.412810
v 0.657413 0.000000 -0.551167
v 0.590798 0.000000 -0.476586
v 0.583420 0.000000 -0.616390
v 0.529623 0.000000 -0.532093
v 0.498588 0.000000 -0.669980
v 0.456727 0.000000 -0.579163
v 0.405218 0.000000 -0.712649
v 0.374145 0.000000 -0.617599
v 0.305425 0.000000 -0.745004
v 0.284095 0.000000 -0.647305
v 0.201249 0.000000 -0.767537
v 0.188874 0.000000 -0.668306
v 0.094701 0.000000 -0.780642
v 0.090803 0.000000 -0.680718
v -0.012217 0.000000 -0.784640
v -0.007781 0.000000 -0.684738
v -0.117519 0.000000 -0.779780
v -0.104532 0.000000 -0.680627
v -0.219242 0.000000 -0.766237
v -0.197076 0.000000 -0.668725
v -0.315460 0.000000 -0.744073
v -0.283006 0.000000 -0.649485
v -0.404274 0.000000 -0.713157
v -0.359884 0.000000 -0.623550
v -0.483737 0.000000 -0.673045
v -0.425323 0.000000 -0.591879
v -0.551543 0.000000 -0.622855
v -0.477295 0.000000 -0.555868
v -0.604334 0.000000 -0.561597
v -0.514820 0.000000 -0.517019
v -0.637317 0.000000 -0.489760
v -0.538359 0.000000 -0.475358
v -0.646298 0.000000 -0.410823
v -0.547770 0.000000 -0.427919
v -0.628045 0.000000 -0.324566
v -0.541951 0.000000 -0.375437
v -0.594963 0.000000 -0.269535
v -0.502628 0.000000 -0.307932
v -0.572518 0.000000 -0.216944
v -0.475584 0.000000 -0.241514
v -0.559165 0.000000 -0.166377
v -0.459705 0.000000 -0.176755
v -0.553595 0.000000 -0.117359
v -0.453642 0.000000 -0.114284
v -0.554713 0.000000 -0.069528
v -0.455831 0.000000 -0.054615
v -0.561522 0.000000 -0.022726
v -0.464611 0.000000 0.001939
v -0.573009 0.000000 0.023037
v -0.478334 0.000000 0.055234
v -0.588097 0.000000 0.067657
v -0.495420 0.000000 0.105221
v -0.605641 0.000000 0.111026
v -0.514356 0.000000 0.151854
v -0.624451 0.000000 0.153091
v -0.533671 0.000000 0.195032
v -0.643310 0.000000 0.193924
v -0.551925 0.000000 0.234529
v -0.660968 0.000000 0.233810
v -0.567710 0.000000 0.269907
v -0.676040 0.000000 0.273389
v -0.579749 0.000000 0.300373
v -0.686659 0.000000 0.313775
v -0.587253 0.000000 0.324658
v -0.689666 0.000000 0.356034
v -0.590722 0.000000 0.341542
v -0.680628 0.000000 0.398609
v -0.591929 0.000000 0.352429
v -0.658075 0.000000 0.435811
v -0.589686 0.000000 0.362853
v -0.625159 0.000000 0.464291
v -0.578182 0.000000 0.376012
v -0.583499 0.000000 0.485539
v -0.553140 0.000000 0.390259
v -0.534066 0.000000 0.501143
v -0.510930 0.000000 0.403856
v -0.513565 0.000000 0.506018
v -0.490430 0.000000 0.408731
v -0.493066 0.000000 0.510893
v -0.469930 0.000000 0.413606
v -0.472566 0.000000 0.515768
v -0.449430 0.000000 0.418481
v -0.452066 0.000000 0.520642
v -0.428930 0.000000 0.423355
v -0.431565 0.000000 0.525518
v -0.408430 0.000000 0.428230
v -0.411066 0.000000 0.530392
v -0.387930 0.000000 0.433105
v -0.390565 0.000000 0.535267
v -0.367430 0.000000 0.437980
v -0.370066 0.000000 0.540142
v -0.346930 0.000000 0.442855
v -0.349566 0.000000 0.545017
v -0.326430 0.000000 0.447730
v -0.329065 0.000000 0.549892
v -0.305930 0.000000 0.452605
v -0.308566 0.000000 0.554767
v -0.285430 0.000000 0.457480
v -0.288066 0.000000 0.559642
v -0.264930 0.000000 0.462355
v -0.267566 0.000000 0.564517
v -0.244430 0.000000 0.467230
v -0.247066 0.000000 0.569392
v -0.223930 0.000000 0.472105
v -0.226565 0.000000 0.574267
v -0.203430 0.000000 0.476980
v -0.206066 0.000000 0.579142
v -0.182930 0.000000 0.481855
v -0.185566 0.000000 0.584017
v -0.162430 0.000000 0.486730
v -0.165065 0.000000 0.588892
v -0.141930 0.000000 0.491605
v -0.126840 0.000000 0.597898
v -0.098156 0.000000 0.502100
vn 0.000000 1.000000 0.000000
vt 0.000000 1.000000
vt 1.000000 1.000000
vt 1.000000 0.000000
vt 0.000000 0.000000
g Main
usemtl Main
f 1/1/1 3/2/1 4/3/1 2/4/1
f 3/1/1 5/2/1 6/3/1 4/4/1
f 5/1/1 7/2/1 8/3/1 6/4/1
f 7/1/1 9/2/1 10/3/1 8/4/1
f 9/1/1 11/2/1 12/3/1 10/4/1
f 11/1/1 13/2/1 14/3/1 12/4/1
f 13/1/1 15/2/1 16/3/1 14/4/1
f 15/1/1 17/2/1 18/3/1 16/4/1
f 17/1/1 19/2/1 20/3/1 18/4/1
f 19/1/1 21/2/1 22/3/1 20/4/1
f 21/1/1 23/2/1 24/3/1 22/4/1
f 23/1/1 25/2/1 26/3/1 24/4/1
f 25/1/1 27/2/1 28/3/1 26/4/1
f 27/1/1 29/2/1 30/3/1 28/4/1
f 29/1/1 31/2/1 32/3/1 30/4/1
f 31/1/1 33/2/1 34/3/1 32/4/1
f 33/1/1 35/2/1 36/3/1 34/4/1
f 35/1/1 37/2/1 38/3/1 36/4/1
f 37/1/1 39/2/1 40/3/1 38/4/1
f 39/1/1 41/2/1 42/3/1 40/4/1
f 41/1/1 43/2/1 44/3/1 42/4/1
f 43/1/1 45/2/1 46/3/1 44/4/1
f 45/1/1 47/2/1 48/3/1 46/4/1
f 47/1/1 49/2/1 50/3/1 48/4/1
f 49/1/1 51/2/1 52/3/1 50/4/1
f 51/1/1 53/2/1 54/3/1 52/4/1
f 53/1/1 55/2/1 56/3/1 54/4/1
f 55/1/1 57/2/1 58/3/1 56/4/1
f 57/1/1 59/2/1 60/3/1 58/4/1
f 59/1/1 61/2/1 62/3/1 60/4/1
f 61/1/1 63/2/1 64/3/1 62/4/1
f 63/1/1 65/2/1 66/3/1 64/4/1
f 65/1/1 67/2/1 68/3/1 66/4/1
f 67/1/1 69/2/1 70/3/1 68/4/1
f 69/1/1 71/2/1 72/3/1 70/4/1
f 71/1/1 73/2/1 74/3/1 72/4/1
f 73/1/1 75/2/1 76/3/1 74/4/1
f 75/1/1 77/2/1 78/3/1 76/4/1
f 77/1/1 79/2/1 80/3/1 78/4/1
f 79/1/1 81/2/1 82/3/1 80/4/1
f 81/1/1 83/2/1 84/3/1 82/4/1
f 83/1/1 85/2/1 86/3/1 84/4/1
f 85/1/1 87/2/1 88/3/1 86/4/1
f 87/1/1 89/2/1 90/3/1 88/4/1
f 89/1/1 91/2/1 92/3/1 90/4/1
f 91/1/1 93/2/1 94/3/1 92/4/1
f 93/1/1 95/2/1 96/3/1 94/4/1
f 95/1/1 97/2/1 98/3/1 96/4/1
f 97/1/1 99/2/1 100/3/1 98/4/1
f 99/1/1 101/2/1 102/3/1 100/4/1
f 101/1/1 103/2/1 104/3/1 102/4/1
f 103/1/1 105/2/1 106/3/1 104/4/1
f 105/1/1 107/2/1 108/3/1 106/4/1
f 107/1/1 109/2/1 110/3/1 108/4/1
f 109/1/1 111/2/1 112/3/1 110/4/1
f 111/1/1 113/2/1 114/3/1 112/4/1
f 113/1/1 115/2/1 116/3/1 114/4/1
f 115/1/1 117/2/1 118/3/1 116/4/1
f 117/1/1 119/2/1 120/3/1 118/4/1
f 119/1/1 121/2/1 122/3/1 120/4/1
f 121/1/1 123/2/1 124/3/1 122/4/1
f 123/1/1 125/2/1 126/3/1 124/4/1
f 125/1/1 127/2/1 128/3/1 126/4/1
f 127/1/1 129/2/1 130/3/1 128/4/1
f 129/1/1 131/2/1 132/3/1 130/4/1
f 131/1/1 133/2/1 134/3/1 132/4/1
f 133/1/1 135/2/1 136/3/1 134/4/1
f 135/1/1 137/2/1 138/3/1 136/4/1
f 137/1/1 139/2/1 140/3/1 138/4/1
f 139/1/1 141/2/1 142/3/1 140/4/1
f 141/1/1 143/2/1 144/3/1 142/4/1
f 143/1/1 145/2/1 146/3/1 144/4/1
f 145/1/1 147/2/1 148/3/1 146/4/1
f 147/1/1 149/2/1 150/3/1 148/4/1
f 149/1/1 151/2/1 152/3/1 150/4/1
f 151/1/1 153/2/1 154/3/1 152/4/1
f 153/1/1 155/2/1 156/3/1 154/4/1
f 155/1/1 157/2/1 158/3/1 156/4/1
f 157/1/1 159/2/1 160/3/1 158/4/1
f 159/1/1 1/2/1 2/3/1 160/4/1

c 1.0 1.0 1.0
