mtllib pista.mtl
v -0.482796 0.000000 0.564999
v -0.482204 0.000000 0.465001
v -0.443639 0.000000 0.565231
v -0.443141 0.000000 0.465232
v -0.404277 0.000000 0.565427
v -0.403867 0.000000 0.465428
v -0.364727 0.000000 0.565589
v -0.364399 0.000000 0.465590
v -0.325006 0.000000 0.565720
v -0.324754 0.000000 0.465720
v -0.285129 0.000000 0.565820
v -0.284949 0.000000 0.465820
v -0.245115 0.000000 0.565892
v -0.245000 0.000000 0.465892
v -0.204979 0.000000 0.565938
v -0.204925 0.000000 0.465938
v -0.164739 0.000000 0.565960
v -0.164741 0.000000 0.465960
v -0.124411 0.000000 0.565959
v -0.124464 0.000000 0.465959
v -0.084012 0.000000 0.565937
v -0.084112 0.000000 0.465937
v -0.043560 0.000000 0.565897
v -0.043701 0.000000 0.465897
v -0.003071 0.000000 0.565840
v -0.003249 0.000000 0.465840
v 0.037439 0.000000 0.565767
v 0.037228 0.000000 0.465768
v 0.077952 0.000000 0.565682
v 0.077713 0.000000 0.465682
v 0.118452 0.000000 0.565585
v 0.118190 0.000000 0.465586
v 0.158921 0.000000 0.565479
v 0.158640 0.000000 0.465480
v 0.199343 0.000000 0.565366
v 0.199047 0.000000 0.465366
v 0.239700 0.000000 0.565247
v 0.239395 0.000000 0.465247
v 0.279977 0.000000 0.565124
v 0.279667 0.000000 0.465124
v 0.369999 0.000000 0.515349
v 0.270002 0.000000 0.514650
v 0.370231 0.000000 0.482171
v 0.270233 0.000000 0.481583
v 0.370427 0.000000 0.448789
v 0.270428 0.000000 0.448305
v 0.370590 0.000000 0.415257
v 0.270590 0.000000 0.414869
v 0.370720 0.000000 0.381629
v 0.270720 0.000000 0.381331
v 0.370820 0.000000 0.347959
v 0.270821 0.000000 0.347744
v 0.370893 0.000000 0.314301
v 0.270893 0.000000 0.314164
v 0.370939 0.000000 0.280709
v 0.270939 0.000000 0.280645
v 0.370960 0.000000 0.247238
v 0.270960 0.000000 0.247241
v 0.370959 0.000000 0.213942
v 0.270959 0.000000 0.214008
v 0.370938 0.000000 0.180876
v 0.270938 0.000000 0.180999
v 0.370897 0.000000 0.148093
v 0.270897 0.000000 0.148269
v 0.370840 0.000000 0.115647
v 0.270840 0.000000 0.115872
v 0.370768 0.000000 0.083594
v 0.270768 0.000000 0.083864
v 0.370682 0.000000 0.051987
v 0.270683 0.000000 0.052298
v 0.370586 0.000000 0.020881
v 0.270586 0.000000 0.021228
v 0.370480 0.000000 -0.009670
v 0.270480 0.000000 -0.009291
v 0.370366 0.000000 -0.039611
v 0.270367 0.000000 -0.039204
v 0.370247 0.000000 -0.068888
v 0.270248 0.000000 -0.068458
v 0.370124 0.000000 -0.097446
v 0.270125 0.000000 -0.096998
v 0.320230 0.000000 -0.175000
v 0.319770 0.000000 -0.075001
v 0.273636 0.000000 -0.175214
v 0.273326 0.000000 -0.075215
v 0.226409 0.000000 -0.175361
v 0.226228 0.000000 -0.075361
v 0.178768 0.000000 -0.175447
v 0.178697 0.000000 -0.075447
v 0.130930 0.000000 -0.175481
v 0.130953 0.000000 -0.075481
v 0.083114 0.000000 -0.175470
v 0.083217 0.000000 -0.075470
v 0.035541 0.000000 -0.175422
v 0.035708 0.000000 -0.075422
v -0.011573 0.000000 -0.175343
v -0.011355 0.000000 -0.075343
v -0.058006 0.000000 -0.175242
v -0.057751 0.000000 -0.075242
v -0.103540 0.000000 -0.175125
v -0.103261 0.000000 -0.075126
v -0.147955 0.000000 -0.175002
v -0.147668 0.000000 -0.075002
v -0.191030 0.000000 -0.174878
v -0.190750 0.000000 -0.074878
v -0.232546 0.000000 -0.174762
v -0.232291 0.000000 -0.074762
v -0.272282 0.000000 -0.174661
v -0.272073 0.000000 -0.074661
v -0.310015 0.000000 -0.174582
v -0.309878 0.000000 -0.074582
v -0.345524 0.000000 -0.174533
v -0.345490 0.000000 -0.074533
v -0.378584 0.000000 -0.174522
v -0.378695 0.000000 -0.074522
v -0.408969 0.000000 -0.174555
v -0.409280 0.000000 -0.074555
v -0.436445 0.000000 -0.174640
v -0.437040 0.000000 -0.074642
v -0.460771 0.000000 -0.174785
v -0.461777 0.000000 -0.074790
v -0.532500 0.000000 -0.125001
v -0.432500 0.000000 -0.125001
v -0.532500 0.000000 -0.093001
v -0.432500 0.000000 -0.093001
v -0.532500 0.000000 -0.061001
v -0.432500 0.000000 -0.061001
v -0.532500 0.000000 -0.029001
v -0.432500 0.000000 -0.029001
v -0.532500 0.000000 0.002999
v -0.432500 0.000000 0.002999
v -0.532500 0.000000 0.034999
v -0.432500 0.000000 0.034999
v -0.532500 0.000000 0.066999
v -0.432500 0.000000 0.066999
v -0.532500 0.000000 0.099000
v -0.432500 0.000000 0.098999
v -0.532500 0.000000 0.131000
v -0.432500 0.000000 0.131000
v -0.532500 0.000000 0.163000
v -0.432500 0.000000 0.163000
v -0.532500 0.000000 0.195000
v -0.432500 0.000000 0.195000
v -0.532500 0.000000 0.227000
v -0.432500 0.000000 0.227000
v -0.532500 0.000000 0.259000
v -0.432500 0.000000 0.259000
v -0.532500 0.000000 0.291000
v -0.432500 0.000000 0.291000
v -0.532500 0.000000 0.323000
v -0.432500 0.000000 0.323000
v -0.532500 0.000000 0.355000
v -0.432500 0.000000 0.355000
v -0.532500 0.000000 0.387000
v -0.432500 0.000000 0.387000
v -0.532500 0.000000 0.419000
v -0.432500 0.000000 0.419000
v -0.532500 0.000000 0.451000
v -0.432500 0.000000 0.451000
v -0.482796 0.000000 0.564999
v -0.482204 0.000000 0.465001
vn 0.000000 1.000000 0.000000
vt 0.000000 1.000000
vt 1.000000 1.000000
vt 1.000000 0.000000
vt 0.000000 0.000000
g Main
usemtl Main
f 1/1/1 3/2/1 4/3/1 2/4/1
f 3/1/1 5/2/1 6/3/1 4/4/1
f 5/1/1 7/2/1 8/3/1 6/4/1
f 7/1/1 9/2/1 10/3/1 8/4/1
f 9/1/1 11/2/1 12/3/1 10/4/1
f 11/1/1 13/2/1 14/3/1 12/4/1
f 13/1/1 15/2/1 16/3/1 14/4/1
f 15/1/1 17/2/1 18/3/1 16/4/1
f 17/1/1 19/2/1 20/3/1 18/4/1
f 19/1/1 21/2/1 22/3/1 20/4/1
f 21/1/1 23/2/1 24/3/1 22/4/1
f 23/1/1 25/2/1 26/3/1 24/4/1
f 25/1/1 27/2/1 28/3/1 26/4/1
f 27/1/1 29/2/1 30/3/1 28/4/1
f 29/1/1 31/2/1 32/3/1 30/4/1
f 31/1/1 33/2/1 34/3/1 32/4/1
f 33/1/1 35/2/1 36/3/1 34/4/1
f 35/1/1 37/2/1 38/3/1 36/4/1
f 37/1/1 39/2/1 40/3/1 38/4/1
f 39/1/1 41/2/1 42/3/1 40/4/1
f 41/1/1 43/2/1 44/3/1 42/4/1
f 43/1/1 45/2/1 46/3/1 44/4/1
f 45/1/1 47/2/1 48/3/1 46/4/1
f 47/1/1 49/2/1 50/3/1 48/4/1
f 49/1/1 51/2/1 52/3/1 50/4/1
f 51/1/1 53/2/1 54/3/1 52/4/1
f 53/1/1 55/2/1 56/3/1 54/4/1
f 55/1/1 57/2/1 58/3/1 56/4/1
f 57/1/1 59/2/1 60/3/1 58/4/1
f 59/1/1 61/2/1 62/3/1 60/4/1
f 61/1/1 63/2/1 64/3/1 62/4/1
f 63/1/1 65/2/1 66/3/1 64/4/1
f 65/1/1 67/2/1 68/3/1 66/4/1
f 67/1/1 69/2/1 70/3/1 68/4/1
f 69/1/1 71/2/1 72/3/1 70/4/1
f 71/1/1 73/2/1 74/3/1 72/4/1
f 73/1/1 75/2/1 76/3/1 74/4/1
f 75/1/1 77/2/1 78/3/1 76/4/1
f 77/1/1 79/2/1 80/3/1 78/4/1
f 79/1/1 81/2/1 82/3/1 80/4/1
f 81/1/1 83/2/1 84/3/1 82/4/1
f 83/1/1 85/2/1 86/3/1 84/4/1
f 85/1/1 87/2/1 88/3/1 86/4/1
f 87/1/1 89/2/1 90/3/1 88/4/1
f 89/1/1 91/2/1 92/3/1 90/4/1
f 91/1/1 93/2/1 94/3/1 92/4/1
f 93/1/1 95/2/1 96/3/1 94/4/1
f 95/1/1 97/2/1 98/3/1 96/4/1
f 97/1/1 99/2/1 100/3/1 98/4/1
f 99/1/1 101/2/1 102/3/1 100/4/1
f 101/1/1 103/2/1 104/3/1 102/4/1
f 103/1/1 105/2/1 106/3/1 104/4/1
f 105/1/1 107/2/1 108/3/1 106/4/1
f 107/1/1 109/2/1 110/3/1 108/4/1
f 109/1/1 111/2/1 112/3/1 110/4/1
f 111/1/1 113/2/1 114/3/1 112/4/1
f 113/1/1 115/2/1 116/3/1 114/4/1
f 115/1/1 117/2/1 118/3/1 116/4/1
f 117/1/1 119/2/1 120/3/1 118/4/1
f 119/1/1 121/2/1 122/3/1 120/4/1
f 121/1/1 123/2/1 124/3/1 122/4/1
f 123/1/1 125/2/1 126/3/1 124/4/1
f 125/1/1 127/2/1 128/3/1 126/4/1
f 127/1/1 129/2/1 130/3/1 128/4/1
f 129/1/1 131/2/1 132/3/1 130/4/1
f 131/1/1 133/2/1 134/3/1 132/4/1
f 133/1/1 135/2/1 136/3/1 134/4/1
f 135/1/1 137/2/1 138/3/1 136/4/1
f 137/1/1 139/2/1 140/3/1 138/4/1
f 139/1/1 141/2/1 142/3/1 140/4/1
f 141/1/1 143/2/1 144/3/1 142/4/1
f 143/1/1 145/2/1 146/3/1 144/4/1
f 145/1/1 147/2/1 148/3/1 146/4/1
f 147/1/1 149/2/1 150/3/1 148/4/1
f 149/1/1 151/2/1 152/3/1 150/4/1
f 151/1/1 153/2/1 154/3/1 152/4/1
f 153/1/1 155/2/1 156/3/1 154/4/1
f 155/1/1 157/2/1 158/3/1 156/4/1
f 157/1/1 159/2/1 160/3/1 158/4/1
f 159/1/1 1/2/1 2/3/1 160/4/1
